<?xml version="1.0" encoding="UTF-8"?>
<svg width="512px" height="590px" viewBox="0 0 512 590" version="1.1" xmlns="http://www.w3.org/2000/svg" xmlns:xlink="http://www.w3.org/1999/xlink">
    <!-- Generator: Sketch 52.6 (67491) - http://www.bohemiancoding.com/sketch -->
    <title>logo</title>
    <desc>Created with Sketch.</desc>
    <defs>
        <radialGradient cx="0%" cy="50%" fx="0%" fy="50%" r="100%" id="radialGradient-1">
            <stop stop-color="#5D9DF6" offset="0%"></stop>
            <stop stop-color="#006FFF" offset="100%"></stop>
        </radialGradient>
    </defs>
    <g id="Page-1" stroke="none" stroke-width="1" fill="none" fill-rule="evenodd">
        <g id="logo" transform="translate(-39.000000, 0.000000)">
            <polygon id="Polygon" fill="url(#radialGradient-1)" points="295 0 550.477494 147.5 550.477494 442.5 295 590 39.5225059 442.5 39.5225059 147.5"></polygon>
            <path d="M194.405895,231.673222 C249.86622,177.442259 339.785174,177.442259 395.245498,231.673222 L401.920237,238.200005 C404.693254,240.911553 404.693254,245.307841 401.920237,248.01939 L379.087286,270.346215 C377.700777,271.70199 375.452803,271.70199 374.066295,270.346215 L364.881061,261.364586 C326.190552,223.53171 263.460842,223.53171 224.770332,261.364586 L214.933705,270.98317 C213.547196,272.338943 211.299222,272.338943 209.912714,270.98317 L187.079763,248.656345 C184.306746,245.944796 184.306746,241.548508 187.079763,238.83696 L194.405895,231.673222 Z M442.604374,278.028982 L462.920749,297.842027 C465.69307,300.545655 465.693086,304.929097 462.920784,307.632745 L371.312843,396.972219 C368.540528,399.675881 364.045685,399.675911 361.273332,396.972289 C361.27332,396.972277 361.273308,396.972265 361.273296,396.972254 L296.255552,333.565428 C295.562469,332.889517 294.438759,332.889517 293.745675,333.565428 C293.74567,333.565432 293.745667,333.565436 293.745662,333.56544 L228.729303,396.972219 C225.956997,399.675888 221.462154,399.675932 218.689792,396.972318 C218.689775,396.972302 218.689758,396.972285 218.689741,396.972269 L127.079251,307.631607 C124.306916,304.927965 124.306916,300.544496 127.079251,297.840855 L147.395662,278.027844 C150.167997,275.324203 154.662839,275.324203 157.435173,278.027844 L222.453863,341.435555 C223.146947,342.111466 224.270657,342.111466 224.963741,341.435555 C224.963751,341.435546 224.96376,341.435536 224.96377,341.435528 L289.979202,278.027844 C292.751473,275.32414 297.246315,275.324039 300.018713,278.027618 C300.018752,278.027656 300.018791,278.027693 300.018829,278.027731 L365.037432,341.435528 C365.730516,342.111438 366.854226,342.111438 367.54731,341.435528 L432.564862,278.028982 C435.337197,275.32534 439.832039,275.32534 442.604374,278.028982 Z" id="WalletConnect" fill="#FFFFFF" fill-rule="nonzero"></path>
        </g>
    </g>
</svg>