<?xml version="1.0" encoding="UTF-8"?>
<svg width="512px" height="590px" viewBox="0 0 512 590" version="1.1" xmlns="http://www.w3.org/2000/svg" xmlns:xlink="http://www.w3.org/1999/xlink">
    <!-- Generator: Sketch 52.6 (67491) - http://www.bohemiancoding.com/sketch -->
    <title>walletconnect-hexagon-white</title>
    <desc>Created with Sketch.</desc>
    <g id="Page-1" stroke="none" stroke-width="1" fill="none" fill-rule="evenodd">
        <g id="walletconnect-hexagon-white">
            <polygon id="Polygon" fill="#000000" points="256 0 511.477494 147.5 511.477494 442.5 256 590 0.5225059 442.5 0.5225059 147.5"></polygon>
            <path d="M155.405895,231.673222 C210.86622,177.442259 300.785174,177.442259 356.245498,231.673222 L362.920237,238.200005 C365.693254,240.911553 365.693254,245.307841 362.920237,248.01939 L340.087286,270.346215 C338.700777,271.70199 336.452803,271.70199 335.066295,270.346215 L325.881061,261.364586 C287.190552,223.53171 224.460842,223.53171 185.770332,261.364586 L175.933705,270.98317 C174.547196,272.338943 172.299222,272.338943 170.912714,270.98317 L148.079763,248.656345 C145.306746,245.944796 145.306746,241.548508 148.079763,238.83696 L155.405895,231.673222 Z M403.604374,278.028982 L423.920749,297.842027 C426.69307,300.545655 426.693086,304.929097 423.920784,307.632745 L332.312843,396.972219 C329.540528,399.675881 325.045685,399.675911 322.273332,396.972289 C322.27332,396.972277 322.273308,396.972265 322.273296,396.972254 L257.255552,333.565428 C256.562469,332.889517 255.438759,332.889517 254.745675,333.565428 C254.74567,333.565432 254.745667,333.565436 254.745662,333.56544 L189.729303,396.972219 C186.956997,399.675888 182.462154,399.675932 179.689792,396.972318 C179.689775,396.972302 179.689758,396.972285 179.689741,396.972269 L88.079251,307.631607 C85.306916,304.927965 85.306916,300.544496 88.079251,297.840855 L108.395662,278.027844 C111.167997,275.324203 115.662839,275.324203 118.435173,278.027844 L183.453863,341.435555 C184.146947,342.111466 185.270657,342.111466 185.963741,341.435555 C185.963751,341.435546 185.96376,341.435536 185.96377,341.435528 L250.979202,278.027844 C253.751473,275.32414 258.246315,275.324039 261.018713,278.027618 C261.018752,278.027656 261.018791,278.027693 261.018829,278.027731 L326.037432,341.435528 C326.730516,342.111438 327.854226,342.111438 328.54731,341.435528 L393.564862,278.028982 C396.337197,275.32534 400.832039,275.32534 403.604374,278.028982 Z" id="WalletConnect" fill="#3B99FC" fill-rule="nonzero"></path>
        </g>
    </g>
</svg>